<?xml version="1.0" encoding="UTF-8"?>
<svg id="Layer_1" xmlns="http://www.w3.org/2000/svg" version="1.1" viewBox="0 0 1000 1000">
  <!-- Generator: Adobe Illustrator 29.6.1, SVG Export Plug-In . SVG Version: 2.1.1 Build 9)  -->
  <defs>
    <style>
      .st0 {
        fill: #010101;
      }
    </style>
  </defs>
  <circle class="st0" cx="140.36" cy="139.09" r="90.86"/>
  <circle class="st0" cx="320.34" cy="139.09" r="33.2"/>
  <circle class="st0" cx="502.06" cy="139.09" r="62.9"/>
  <circle class="st0" cx="682.04" cy="139.09" r="33.2"/>
  <path class="st0" d="M952.88,139.09c0,50.67-40.19,90.86-90.86,90.86s-90.86-40.19-90.86-90.86,40.19-90.86,90.86-90.86c50.67,0,90.86,40.19,90.86,90.86Z"/>
  <path class="st0" d="M383.24,319.06c0,34.95-27.96,62.9-62.9,62.9s-62.9-27.96-62.9-62.9,27.96-62.9,62.9-62.9,62.9,27.96,62.9,62.9Z"/>
  <circle class="st0" cx="502.06" cy="319.06" r="33.2"/>
  <path class="st0" d="M744.95,319.06c0,34.95-27.96,62.9-62.9,62.9s-62.9-27.96-62.9-62.9,27.96-62.9,62.9-62.9,62.9,27.96,62.9,62.9Z"/>
  <circle class="st0" cx="320.34" cy="499.04" r="33.2"/>
  <circle class="st0" cx="502.06" cy="499.04" r="90.86"/>
  <circle class="st0" cx="682.04" cy="499.04" r="33.2"/>
  <path class="st0" d="M383.24,680.77c0,34.95-27.96,62.9-62.9,62.9s-62.9-27.96-62.9-62.9,27.96-62.9,62.9-62.9c34.95,0,62.9,27.96,62.9,62.9Z"/>
  <circle class="st0" cx="502.06" cy="680.77" r="33.2"/>
  <path class="st0" d="M744.95,680.77c0,34.95-27.96,62.9-62.9,62.9s-62.9-27.96-62.9-62.9,27.96-62.9,62.9-62.9c34.95,0,62.9,27.96,62.9,62.9Z"/>
  <path class="st0" d="M229.48,860.74c0,50.67-40.19,90.86-90.86,90.86s-90.86-40.19-90.86-90.86,40.19-90.86,90.86-90.86c50.67,1.75,90.86,41.94,90.86,90.86Z"/>
  <circle class="st0" cx="320.34" cy="860.74" r="33.2"/>
  <circle class="st0" cx="502.06" cy="860.74" r="62.9"/>
  <circle class="st0" cx="682.04" cy="860.74" r="33.2"/>
  <circle class="st0" cx="140.36" cy="680.77" r="33.2"/>
  <path class="st0" d="M140.36,437.88c34.95,0,62.9,27.96,62.9,62.9s-27.96,62.9-62.9,62.9-62.9-27.96-62.9-62.9c0-34.95,27.96-62.9,62.9-62.9Z"/>
  <circle class="st0" cx="140.36" cy="319.06" r="33.2"/>
  <circle class="st0" cx="862.02" cy="680.77" r="33.2"/>
  <path class="st0" d="M862.02,437.88c34.95,0,62.9,27.96,62.9,62.9s-27.96,62.9-62.9,62.9-62.9-27.96-62.9-62.9c1.75-34.95,29.7-62.9,62.9-62.9Z"/>
  <circle class="st0" cx="862.02" cy="319.06" r="33.2"/>
  <path class="st0" d="M952.88,860.74c0,50.67-40.19,90.86-90.86,90.86s-90.86-40.19-90.86-90.86,40.19-90.86,90.86-90.86c50.67,1.75,90.86,41.94,90.86,90.86Z"/>
</svg>