<?xml version="1.0" encoding="UTF-8"?>
<svg id="Layer_1" xmlns="http://www.w3.org/2000/svg" version="1.1" viewBox="0 0 1000 1000">
  <!-- Generator: Adobe Illustrator 29.6.1, SVG Export Plug-In . SVG Version: 2.1.1 Build 9)  -->
  <defs>
    <style>
      .st0 {
        fill: #010101;
      }
    </style>
  </defs>
  <circle class="st0" cx="138.26" cy="137.95" r="34.4"/>
  <circle class="st0" cx="290.33" cy="137.95" r="61.55"/>
  <circle class="st0" cx="500.32" cy="137.95" r="90.51"/>
  <circle class="st0" cx="710.31" cy="137.95" r="61.55"/>
  <circle class="st0" cx="862.37" cy="137.95" r="34.4"/>
  <circle class="st0" cx="138.26" cy="291.82" r="61.55"/>
  <circle class="st0" cx="319.29" cy="318.97" r="34.4"/>
  <circle class="st0" cx="500.32" cy="347.94" r="61.55"/>
  <circle class="st0" cx="681.34" cy="318.97" r="34.4"/>
  <circle class="st0" cx="862.37" cy="291.82" r="61.55"/>
  <circle class="st0" cx="138.26" cy="500" r="90.51"/>
  <circle class="st0" cx="348.25" cy="500" r="61.55"/>
  <circle class="st0" cx="500.32" cy="500" r="34.4"/>
  <circle class="st0" cx="652.38" cy="500" r="61.55"/>
  <circle class="st0" cx="862.37" cy="500" r="90.51"/>
  <circle class="st0" cx="138.26" cy="709.99" r="61.55"/>
  <circle class="st0" cx="319.29" cy="681.03" r="34.4"/>
  <path class="st0" d="M561.87,652.06c0,34.39-27.15,61.55-61.55,61.55s-61.55-27.15-61.55-61.55,27.15-61.55,61.55-61.55,61.55,27.15,61.55,61.55Z"/>
  <circle class="st0" cx="681.34" cy="681.03" r="34.4"/>
  <circle class="st0" cx="862.37" cy="709.99" r="61.55"/>
  <circle class="st0" cx="138.26" cy="862.05" r="34.4"/>
  <circle class="st0" cx="290.33" cy="862.05" r="61.55"/>
  <circle class="st0" cx="500.32" cy="862.05" r="90.51"/>
  <circle class="st0" cx="710.31" cy="862.05" r="61.55"/>
  <circle class="st0" cx="862.37" cy="862.05" r="34.4"/>
</svg>