<?xml version="1.0" encoding="UTF-8"?>
<svg id="Layer_1" xmlns="http://www.w3.org/2000/svg" version="1.1" viewBox="0 0 1000 1000">
  <!-- Generator: Adobe Illustrator 29.6.1, SVG Export Plug-In . SVG Version: 2.1.1 Build 9)  -->
  <defs>
    <style>
      .st0 {
        fill: #cebc9a;
      }
    </style>
  </defs>
  <polygon class="st0" points="949.15 488.61 557.27 488.61 919.32 338.64 910.6 317.59 548.54 467.56 825.65 190.46 809.54 174.35 532.44 451.45 682.4 89.4 661.36 80.68 511.39 442.72 511.39 50.85 488.61 50.85 488.61 442.73 338.64 80.68 317.6 89.4 467.56 451.46 190.46 174.35 174.35 190.46 451.45 467.56 89.41 317.59 80.68 338.64 442.73 488.61 50.85 488.61 50.85 511.39 442.74 511.39 80.68 661.36 89.41 682.41 451.45 532.44 174.35 809.54 190.46 825.65 467.56 548.55 317.6 910.59 338.64 919.31 488.61 557.26 488.61 949.15 511.39 949.15 511.39 557.27 661.36 919.31 682.4 910.59 532.44 548.55 809.54 825.65 825.65 809.54 548.54 532.44 910.6 682.41 919.32 661.36 557.27 511.39 949.15 511.39 949.15 488.61"/>
</svg>